<svg width="88" height="89" viewBox="0 0 88 89" fill="none" xmlns="http://www.w3.org/2000/svg">
<rect width="88" height="89" fill="white"/>
<path fill-rule="evenodd" clip-rule="evenodd" d="M54.3554 41.8798C57.3598 39.5765 59.5953 36.3305 60.7416 32.6068C61.8878 28.883 61.8861 24.8726 60.7366 21.15C59.5871 17.4274 57.3489 14.1835 54.3424 11.8831C51.336 9.58269 47.7157 8.34375 44 8.34375C40.2843 8.34375 36.664 9.58269 33.6576 11.8831C30.6511 14.1835 28.4129 17.4274 27.2634 21.15C26.1139 24.8726 26.1122 28.883 27.2584 32.6068C28.4047 36.3305 30.6402 39.5765 33.6446 41.8798C30.2347 43.1727 27.2865 45.5427 25.2025 48.6663C23.1185 51.7899 22.0001 55.515 22 59.3331V61.6509C22 62.2656 22.2318 62.8552 22.6444 63.2899C23.0569 63.7246 23.6165 63.9688 24.2 63.9688C24.7835 63.9688 25.3431 63.7246 25.7556 63.2899C26.1682 62.8552 26.4 62.2656 26.4 61.6509V59.3331C26.4 55.6447 27.7907 52.1074 30.2662 49.4993C32.7417 46.8913 36.0991 45.4261 39.6 45.4261H48.4C51.9009 45.4261 55.2583 46.8913 57.7338 49.4993C60.2093 52.1074 61.6 55.6447 61.6 59.3331V61.6509C61.6 62.2656 61.8318 62.8552 62.2444 63.2899C62.6569 63.7246 63.2165 63.9688 63.8 63.9688C64.3835 63.9688 64.9431 63.7246 65.3556 63.2899C65.7682 62.8552 66 62.2656 66 61.6509V59.3331C65.9999 55.515 64.8815 51.7899 62.7975 48.6663C60.7135 45.5427 57.7653 43.1727 54.3554 41.8798ZM30.8 26.8834C30.8 23.1951 32.1907 19.6578 34.6662 17.0497C37.1417 14.4416 40.4991 12.9764 44 12.9764C47.5009 12.9764 50.8583 14.4416 53.3338 17.0497C55.8093 19.6578 57.2 23.1951 57.2 26.8834C57.2 30.5718 55.8093 34.1091 53.3338 36.7172C50.8583 39.3252 47.5009 40.7904 44 40.7904C40.4991 40.7904 37.1417 39.3252 34.6662 36.7172C32.1907 34.1091 30.8 30.5718 30.8 26.8834Z" fill="black"/>
</svg>
