<svg width="84" height="84" viewBox="0 0 84 84" fill="none" xmlns="http://www.w3.org/2000/svg">
<rect width="84" height="84" fill="white"/>
<path fill-rule="evenodd" clip-rule="evenodd" d="M51.8847 39.527C54.7526 37.3531 56.8864 34.2895 57.9806 30.7749C59.0747 27.2604 59.0731 23.4753 57.9759 19.9618C56.8786 16.4483 54.7421 13.3867 51.8723 11.2155C49.0025 9.04433 45.5468 7.875 42 7.875C38.4532 7.875 34.9975 9.04433 32.1277 11.2155C29.2579 13.3867 27.1214 16.4483 26.0241 19.9618C24.9269 23.4753 24.9252 27.2604 26.0194 30.7749C27.1136 34.2895 29.2474 37.3531 32.1153 39.527C28.8604 40.7473 26.0462 42.9841 24.0569 45.9322C22.0676 48.8804 21.0001 52.3962 21 55.9998V58.1874C21 58.7676 21.2212 59.324 21.6151 59.7343C22.0089 60.1445 22.543 60.375 23.1 60.375C23.657 60.375 24.1911 60.1445 24.5849 59.7343C24.9787 59.324 25.2 58.7676 25.2 58.1874V55.9998C25.2 52.5186 26.5275 49.18 28.8905 46.7185C31.2534 44.2569 34.4583 42.8741 37.8 42.8741H46.2C49.5417 42.8741 52.7466 44.2569 55.1095 46.7185C57.4725 49.18 58.8 52.5186 58.8 55.9998V58.1874C58.8 58.7676 59.0212 59.324 59.4151 59.7343C59.8089 60.1445 60.343 60.375 60.9 60.375C61.457 60.375 61.9911 60.1445 62.3849 59.7343C62.7788 59.324 63 58.7676 63 58.1874V55.9998C62.9999 52.3962 61.9324 48.8804 59.9431 45.9322C57.9538 42.9841 55.1396 40.7473 51.8847 39.527ZM29.4 25.3731C29.4 21.892 30.7275 18.5534 33.0905 16.0918C35.4534 13.6303 38.6583 12.2474 42 12.2474C45.3417 12.2474 48.5466 13.6303 50.9095 16.0918C53.2725 18.5534 54.6 21.892 54.6 25.3731C54.6 28.8543 53.2725 32.1928 50.9095 34.6544C48.5466 37.1159 45.3417 38.4988 42 38.4988C38.6583 38.4988 35.4534 37.1159 33.0905 34.6544C30.7275 32.1928 29.4 28.8543 29.4 25.3731Z" fill="black"/>
</svg>
