<svg width="20" height="20" viewBox="0 0 20 20" fill="none" xmlns="http://www.w3.org/2000/svg">
<path fill-rule="evenodd" clip-rule="evenodd" d="M4.885 4.2425C4.3275 4.64125 3.75 5.43625 3.75 7.13625C3.75 7.645 3.91875 8.2925 4.25 9.04875C4.57625 9.79688 5.04187 10.6081 5.59062 11.4319C6.68812 13.0794 8.08437 14.7262 9.2625 15.9338C9.35764 16.0336 9.47207 16.1131 9.59884 16.1674C9.72561 16.2217 9.86209 16.2497 10 16.2497C10.1379 16.2497 10.2744 16.2217 10.4012 16.1674C10.5279 16.1131 10.6424 16.0336 10.7375 15.9338C11.9156 14.7262 13.3125 13.0794 14.4094 11.4319C14.9581 10.6081 15.4237 9.79625 15.7506 9.04875C16.0813 8.2925 16.25 7.645 16.25 7.13625C16.25 5.43625 15.6725 4.64125 15.115 4.2425C14.5188 3.81688 13.815 3.75062 13.4375 3.75062C12.2262 3.75062 11.6144 4.2075 11.2563 4.62563C11.0638 4.85 10.9331 5.07625 10.8162 5.28188L10.8063 5.29813C10.7514 5.39841 10.6911 5.49564 10.6256 5.58938C10.5751 5.65987 10.5154 5.72334 10.4481 5.77812C10.3212 5.88057 10.1631 5.93677 10 5.9375C9.83679 5.93659 9.67875 5.88017 9.55188 5.7775C9.48462 5.72272 9.42493 5.65925 9.37437 5.58875C9.30497 5.48978 9.24133 5.38691 9.18375 5.28063C9.06687 5.07563 8.93563 4.84938 8.74438 4.62563C8.38562 4.2075 7.77375 3.75 6.5625 3.75C6.185 3.75 5.48125 3.81688 4.885 4.2425ZM4.15812 3.22562C5.06562 2.57687 6.08125 2.5 6.5625 2.5C8.16437 2.5 9.11438 3.13687 9.69375 3.8125C9.8125 3.95125 9.91375 4.08938 10 4.21875C10.0862 4.08938 10.1875 3.95125 10.3062 3.8125C10.8856 3.13687 11.8363 2.5 13.4375 2.5C13.9187 2.5 14.9344 2.57687 15.8419 3.225C16.7875 3.90187 17.5 5.1125 17.5 7.1375C17.5 7.89188 17.2575 8.72187 16.8962 9.55C16.5306 10.3863 16.0238 11.2637 15.4494 12.1256C14.3012 13.8494 12.8531 15.5569 11.6319 16.8081C11.4203 17.0272 11.1667 17.2014 10.8864 17.3204C10.606 17.4394 10.3046 17.5007 10 17.5007C9.69543 17.5007 9.39398 17.4394 9.11361 17.3204C8.83325 17.2014 8.57972 17.0272 8.36812 16.8081C7.14687 15.5562 5.69875 13.8494 4.55063 12.1256C3.97625 11.2637 3.46938 10.3863 3.10375 9.55C2.7425 8.72125 2.5 7.89125 2.5 7.13687C2.5 5.1125 3.21187 3.90187 4.15812 3.22562Z" fill="black"/>
</svg>
