<svg width="412" height="138" viewBox="0 0 412 138" fill="none" xmlns="http://www.w3.org/2000/svg">
<path d="M0 10C0 4.47716 4.47715 0 10 0H402C407.523 0 412 4.47715 412 10V46.6526C412 52.1755 407.523 56.6526 402 56.6526H10C4.47715 56.6526 0 52.1755 0 46.6526V10Z" fill="white"/>
<path d="M0 95.8737C0 87.851 6.51797 81.3474 14.5583 81.3474H397.442C405.482 81.3474 412 87.851 412 95.8737V123.474C412 131.496 405.482 138 397.442 138H14.5583C6.51796 138 0 131.496 0 123.474V95.8737Z" fill="white"/>
</svg>
