<svg width="392" height="271" viewBox="0 0 392 271" fill="none" xmlns="http://www.w3.org/2000/svg">
<path d="M0.00098678 10C0.00098678 4.47716 4.47814 0 10.001 0H382C387.523 0 392 4.47715 392 10V43.9235C392 49.4463 387.523 53.9235 382 53.9235H10.001C4.47813 53.9235 0.00098678 49.4463 0.00098678 43.9235V10Z" fill="white"/>
<path d="M0.00098678 91.2551C0.00098678 83.6189 6.20256 77.4286 13.8526 77.4286H378.148C385.798 77.4286 392 83.6189 392 91.2551V117.526C392 125.162 385.798 131.352 378.148 131.352H13.8526C6.20254 131.352 0.00098678 125.162 0.00098678 117.526V91.2551Z" fill="white"/>
<path d="M0.00098678 163.844C0.00098678 156.208 6.20256 150.018 13.8526 150.018H378.148C385.798 150.018 392 156.208 392 163.844V190.115C392 197.751 385.798 203.941 378.148 203.941H13.8526C6.20254 203.941 0.00098678 197.751 0.00098678 190.115V163.844Z" fill="white"/>
<path d="M0 230.903C0 223.267 6.20157 217.077 13.8516 217.077H378.148C385.798 217.077 392 223.267 392 230.903V257.173C392 264.81 385.798 271 378.148 271H13.8516C6.20156 271 0 264.81 0 257.173V230.903Z" fill="white"/>
</svg>
