<svg width="25" height="25" viewBox="0 0 25 25" fill="none" xmlns="http://www.w3.org/2000/svg">
<path fill-rule="evenodd" clip-rule="evenodd" d="M10.6803 3.0058C6.44217 3.0058 3.0058 6.44142 3.0058 10.6803C3.0058 14.9185 6.44142 18.3549 10.6803 18.3549C12.451 18.3576 14.1676 17.7453 15.5369 16.6228L19.73 20.8159C19.8739 20.9599 20.0691 21.0408 20.2727 21.0409C20.4762 21.0409 20.6715 20.9601 20.8155 20.8162C20.9595 20.6724 21.0404 20.4772 21.0405 20.2736C21.0406 20.07 20.9598 19.8748 20.8159 19.7308L16.6228 15.5377C17.7455 14.1682 18.3577 12.4512 18.3549 10.6803C18.3541 6.44217 14.9178 3.0058 10.6803 3.0058ZM4.54101 10.6803C4.54101 9.05209 5.18783 7.49052 6.33918 6.33918C7.49052 5.18783 9.05209 4.54101 10.6803 4.54101C12.3086 4.54101 13.8702 5.18783 15.0215 6.33918C16.1728 7.49052 16.8197 9.05209 16.8197 10.6803C16.8197 12.3086 16.1728 13.8702 15.0215 15.0215C13.8702 16.1728 12.3086 16.8197 10.6803 16.8197C9.05209 16.8197 7.49052 16.1728 6.33918 15.0215C5.18783 13.8702 4.54101 12.3086 4.54101 10.6803Z" fill="black"/>
</svg>
